<?xml version="1.0" encoding="UTF-8" standalone="no"?>
<svg
   xmlns:dc="http://purl.org/dc/elements/1.1/"
   xmlns:cc="http://creativecommons.org/ns#"
   xmlns:rdf="http://www.w3.org/1999/02/22-rdf-syntax-ns#"
   xmlns:svg="http://www.w3.org/2000/svg"
   xmlns="http://www.w3.org/2000/svg"
   xmlns:sodipodi="http://sodipodi.sourceforge.net/DTD/sodipodi-0.dtd"
   xmlns:inkscape="http://www.inkscape.org/namespaces/inkscape"
   width="100"
   height="100"
   viewBox="0 0 26.458333 26.458333"
   version="1.1"
   id="svg8"
   sodipodi:docname="navigation-menu.svg"
   inkscape:version="1.0.2-2 (e86c870879, 2021-01-15)">
  <sodipodi:namedview
     pagecolor="#ffffff"
     bordercolor="#666666"
     borderopacity="1"
     objecttolerance="10"
     gridtolerance="10"
     guidetolerance="10"
     inkscape:pageopacity="0"
     inkscape:pageshadow="2"
     inkscape:window-width="1920"
     inkscape:window-height="1017"
     id="namedview7"
     showgrid="false"
     units="px"
     inkscape:zoom="4.6415182"
     inkscape:cx="99.537551"
     inkscape:cy="47.646597"
     inkscape:window-x="1912"
     inkscape:window-y="-8"
     inkscape:window-maximized="1"
     inkscape:current-layer="svg8"
     inkscape:document-rotation="0" />
  <defs
     id="defs2" />
  <metadata
     id="metadata5">
    <rdf:RDF>
      <cc:Work
         rdf:about="">
        <dc:format>image/svg+xml</dc:format>
        <dc:type
           rdf:resource="http://purl.org/dc/dcmitype/StillImage" />
        <dc:title />
      </cc:Work>
    </rdf:RDF>
  </metadata>
  <g
     id="layer1"
     transform="matrix(0.11429877,0,0,0.14402995,0.18209754,-3.6472003)"
     style="fill:#ffffff;fill-opacity:1">
    <path
       d="m -1.5931715,43.47293 v 6.455833 c 0,10.027709 8.122709,18.150417 18.1504175,18.150417 H 211.74037 c 10.02771,0 18.15042,-8.122708 18.15042,-18.150417 V 43.47293 c 0,-10.027708 -8.12271,-18.150417 -18.15042,-18.150417 H 16.557246 c -10.0277085,0 -18.1504175,8.122709 -18.1504175,18.150417 z M 16.557246,138.56418 H 211.74037 c 10.02771,0 18.15042,-8.1227 18.15042,-18.15041 v -6.48229 c 0,-10.02771 -8.12271,-18.150425 -18.15042,-18.150425 H 16.557246 c -10.0277085,0 -18.1504175,8.122715 -18.1504175,18.150425 v 6.45583 c 0,10.05417 8.122709,18.17687 18.1504175,18.17687 z m 0,70.45855 H 211.74037 c 10.02771,0 18.15042,-8.12271 18.15042,-18.15042 v -6.45583 c 0,-10.02771 -8.12271,-18.15042 -18.15042,-18.15042 H 16.557246 c -10.0277085,0 -18.1504175,8.12271 -18.1504175,18.15042 v 6.45583 c 0,10.02771 8.122709,18.15042 18.1504175,18.15042 z"
       id="path16"
       style="fill:#ffffff;fill-opacity:1;stroke-width:0.264583" />
  </g>
</svg>
