<svg xmlns="http://www.w3.org/2000/svg" height="1000" width="1000">
  <path fill="white" d="M332.8 256v135h48.8V257l29.4-93.9c16.2-51.6 30-95.4 30.7-97.2 1.1-2.8-3.5-3.4-24.3-3.4h-25.8L388 75.3c-2 7-9.5 35-16.6 62.1s-13.5 49.3-14.2 49.3-8.3-26.9-17-59.7c-8.7-32.9-16.4-60.8-17.2-62.1-.9-1.4-11.6-2.1-25.9-1.7l-24.4.7 30.1 96.1 30 96zM604 377.1c2.5 5.1 7.4 10.8 11 12.7 8.2 4.4 25 4.6 35 .3 4.3-1.8 13-7.9 19.4-13.6l11.6-10.3V391h46.2V145.2H681V334l-8.8 9.1c-9.9 10.2-18.7 13.5-24.1 9-3.1-2.6-3.6-17.7-3.6-104.9v-102h-46.4l.7 111.3c.5 103.4.9 112.1 5.2 120.6zm-152.1-2.6c8.1 8.8 14.8 13.4 24.6 16.7 16.5 5.7 24.7 5.8 41.2.9 17.6-5.2 34.9-21.5 40.8-38.4 3.8-11 4.4-21.5 4.4-84.4 0-79.4-1.2-87.4-15.8-105.1-22-26.7-73.7-27.5-96-1.4-15.9 18.6-17.1 26.1-17.1 105.3-.1 82.3.8 87.8 17.9 106.4zm29.8-179.1c6.2-13.5 27.3-13.5 33.4 0 1.8 4 2.8 28.7 2.8 74.2 0 71.3-1.1 79.6-11.1 83.4-2.2.8-6.3 1.4-9.2 1.3-17.6-.6-18.7-5.3-18.7-84.8 0-45.4.9-70.1 2.8-74.1zm98.9 440.4c-5.6-1.9-8.9-1.3-17.6 3.3l-10.8 5.7V794l9.1 5.3c11.7 6.8 15.8 6.7 24.2-.5l6.8-5.9.7-67.8c.9-75.8-.4-85.1-12.4-89.3zM863 661.6c-.7-43.7-2.6-90.5-4.1-103.8-7.9-70.8-30.4-105-76.8-116.6-23.7-5.9-89.4-8.9-228.7-10.4-129.1-1.4-261.8 1.4-312.7 6.6-51.8 5.3-80.2 30.8-92.3 82.9-13.3 57.5-16.1 224.3-5 304.3 3.2 22.8 13.1 52.7 21.9 66 21.9 33.1 54.1 41.5 173 45.5 80 2.7 319.5 1.2 378.1-2.3 54-3.2 66.5-5.4 85.6-14.7 50.7-24.8 64-80.9 61-257.5zM323.4 561.4h-26.8v279.9H248V561.4h-51.2v-46.2h153.4v46.2h-26.8zm148.4 158.2v121.7h-46.2v-25l-10.7 9.8c-5.9 5.4-14 11.6-18.1 13.7-10.8 5.6-31.6 4.9-39.9-1.3-13.1-9.8-14-19-14-135.3V597.9h46.2v99.6c0 87.3.5 100.1 3.8 103.4 6 6 10.6 4.6 22.1-6.8l10.6-10.6V597.9h46.2v121.7zm167.6 11c-.8 78.9-.9 80.5-6.6 92.1-3.3 6.6-9.1 13.8-13.4 16.4-9 5.5-28.3 6-39.6 1.1-4.2-1.8-12.1-7.4-17.6-12.4l-10-9v22.4h-43.8v-326h43.8v105.2l11.9-10.7c10.9-9.8 25.2-16.5 35.2-16.5 10.4 0 23.8 8.2 29.5 17.9 10 17.4 11.4 33 10.6 119.5zm162.9 46.8c-1.9 32.5-12.4 50.6-36 61.2-16.7 7.6-43.8 7-60.4-1.2-14.7-7.3-25.4-19.3-31.3-34.9-3.5-9.2-4.4-22.2-5.2-75.6-1.2-82.2 1.9-98.3 22.5-116.4 12.6-11.1 24.7-15.6 42.6-15.9 21.7-.4 36.1 5.5 49.5 20.4 15.2 16.9 18.7 31.2 18.7 76.2v35.7h-87.6v28.6c0 22.4.9 30.4 4.3 37.1 5.5 11 17 14.8 26.2 8.8 8.2-5.4 10.9-13.1 10.9-30.8v-14.4h47l-1.2 21.2zm-45.7-87v-18.3c0-23.2-4.3-34.2-14.1-36.3-19.5-4.3-27.3 6-27.3 36.3v18.3h41.4z"/>
</svg>
